# xmcd
#
# Track frame offsets: 
#        150
#        18969
#        46976
#        68862
#        87192
#        99722
#        121114
#        138761
#        159520
#        189231
#        209314
#        228708
#        251412
#
# Disc length: 3513 seconds
#
# Revision: 0
# Processed by: cddbd v1.5.2PL0 Copyright (c) Steve Scherf et al.
# Submitted via: ExactAudioCopy v1.0b3
#
DISCID=a40db70d
DTITLE=Dr. John - Ske-Dat-De-Dat: The Spirit Of Satch
DYEAR=2014
DGENRE=Blues
TTITLE0=What A Wonderful World
TTITLE1=Mack The Knife
TTITLE2=Tight Like This
TTITLE3=I've Got The World On A String
TTITLE4=Gut Bucket Blues
TTITLE5=Sometimes I Feel Like A Motherless Child
TTITLE6=That's My Home
TTITLE7=Nobody Knows The Trouble I've Seen
TTITLE8=Wrap Your Troubles In Dreams
TTITLE9=Dippermouth Blues
TTITLE10=Sweet Hunk O'Trash
TTITLE11=Memories Of You
TTITLE12=When You're Smiling (The Whole World Smiles With You)
EXTD=
EXTT0=
EXTT1=
EXTT2=
EXTT3=
EXTT4=
EXTT5=
EXTT6=
EXTT7=
EXTT8=
EXTT9=
EXTT10=
EXTT11=
EXTT12=
PLAYORDER=
